<svg xmlns="http://www.w3.org/2000/svg" width="31" height="30" viewBox="0 0 31 30" fill="none">
  <path d="M25.6249 20.9204C25.6349 21.4004 25.3749 22.5004 25.1749 22.9404C24.6749 24.0804 22.0949 25.3104 20.7049 25.2204C19.4349 25.2504 18.0549 24.6304 16.9049 24.2204C12.2949 22.4204 7.99486 18.1304 6.21486 13.5104C5.80486 12.3504 5.17486 10.9804 5.20486 9.71038C5.11486 8.33038 6.34485 5.74038 7.48485 5.25038C8.04485 5.03038 9.21485 4.68038 9.80485 4.84038C9.97485 4.90038 10.2349 5.27038 10.5749 5.94038C10.9849 6.66038 11.5249 7.70038 11.9649 8.42038C12.1649 8.72038 12.6549 9.30038 12.6349 9.71038C12.4249 10.6704 11.0649 11.2904 10.4249 12.0004C9.62485 12.6404 10.2249 13.2904 10.5749 13.9104C12.0649 16.5804 13.8349 18.3504 16.5049 19.8404C17.1249 20.1904 17.7849 20.7904 18.4149 19.9904C19.1249 19.3504 19.7449 17.9904 20.7049 17.7804C21.1049 17.7604 21.6949 18.2504 21.9949 18.4504C22.7149 18.8904 23.7549 19.4304 24.4749 19.8404C25.1549 20.1804 25.5149 20.4304 25.5749 20.6104C25.6049 20.6804 25.6149 20.7804 25.6149 20.9104L25.6249 20.9204Z" stroke="#A5A5A5" stroke-width="1.5" stroke-linecap="round" stroke-linejoin="round"/>
</svg>