<svg xmlns="http://www.w3.org/2000/svg" width="31" height="30" viewBox="0 0 31 30" fill="none">
  <path d="M15.4944 15.0162C17.0014 15.0162 18.2231 13.7945 18.2231 12.2875C18.2231 10.7804 17.0014 9.55872 15.4944 9.55872C13.9873 9.55872 12.7656 10.7804 12.7656 12.2875C12.7656 13.7945 13.9873 15.0162 15.4944 15.0162Z" stroke="#A5A5A5" stroke-width="1.5" stroke-linecap="round" stroke-linejoin="round"/>
  <path d="M9.04102 21.8923C10.3296 20.3763 12.7443 19.3476 15.4947 19.3476C18.2451 19.3476 20.6599 20.3763 21.9484 21.8923" stroke="#A5A5A5" stroke-width="1.5" stroke-linecap="round" stroke-linejoin="round"/>
  <path d="M15.4947 24.4478C20.7155 24.4478 24.9478 20.2155 24.9478 14.9946C24.9478 9.77377 20.7155 5.54144 15.4947 5.54144C10.2738 5.54144 6.0415 9.77377 6.0415 14.9946C6.0415 20.2155 10.2738 24.4478 15.4947 24.4478Z" stroke="#A5A5A5" stroke-width="1.5" stroke-linecap="round" stroke-linejoin="round"/>
</svg>