<svg xmlns="http://www.w3.org/2000/svg" width="31" height="30" viewBox="0 0 31 30" fill="none">
  <path d="M7.36523 17.5051C8.74595 17.5051 9.86523 16.3858 9.86523 15.0051C9.86523 13.6244 8.74595 12.5051 7.36523 12.5051C5.98452 12.5051 4.86523 13.6244 4.86523 15.0051C4.86523 16.3858 5.98452 17.5051 7.36523 17.5051Z" fill="#232323" stroke="#232323" stroke-width="1.5" stroke-linecap="round" stroke-linejoin="round"/>
  <path d="M15.5 17.5052C16.8807 17.5052 18 16.386 18 15.0052C18 13.6245 16.8807 12.5052 15.5 12.5052C14.1193 12.5052 13 13.6245 13 15.0052C13 16.386 14.1193 17.5052 15.5 17.5052Z" fill="#232323" stroke="#232323" stroke-width="1.5" stroke-linecap="round" stroke-linejoin="round"/>
  <path d="M23.6348 17.5052C25.0155 17.5052 26.1348 16.386 26.1348 15.0052C26.1348 13.6245 25.0155 12.5052 23.6348 12.5052C22.2541 12.5052 21.1348 13.6245 21.1348 15.0052C21.1348 16.386 22.2541 17.5052 23.6348 17.5052Z" fill="#232323" stroke="#232323" stroke-width="1.5" stroke-linecap="round" stroke-linejoin="round"/>
  <path d="M7.36523 9.37C5.96523 9.37 4.86523 8.27 4.86523 6.87C4.86523 5.47 5.96523 4.37 7.36523 4.37C8.76523 4.37 9.86523 5.47 9.86523 6.87C9.86523 8.27 8.76523 9.37 7.36523 9.37Z" fill="#232323" stroke="#232323" stroke-width="1.5" stroke-linecap="round" stroke-linejoin="round"/>
  <path d="M15.5 9.37C14.1 9.37 13 8.27 13 6.87C13 5.47 14.1 4.37 15.5 4.37C16.9 4.37 18 5.47 18 6.87C18 8.27 16.9 9.37 15.5 9.37Z" fill="#232323" stroke="#232323" stroke-width="1.5" stroke-linecap="round" stroke-linejoin="round"/>
  <path d="M23.6348 9.37C22.2348 9.37 21.1348 8.27 21.1348 6.87C21.1348 5.47 22.2348 4.37 23.6348 4.37C25.0348 4.37 26.1348 5.47 26.1348 6.87C26.1348 8.27 24.9348 9.37 23.6348 9.37Z" fill="#232323" stroke="#232323" stroke-width="1.5" stroke-linecap="round" stroke-linejoin="round"/>
  <path d="M7.36523 25.6409C8.74595 25.6409 9.86523 24.5216 9.86523 23.1409C9.86523 21.7602 8.74595 20.6409 7.36523 20.6409C5.98452 20.6409 4.86523 21.7602 4.86523 23.1409C4.86523 24.5216 5.98452 25.6409 7.36523 25.6409Z" fill="#232323" stroke="#232323" stroke-width="1.5" stroke-linecap="round" stroke-linejoin="round"/>
  <path d="M15.5 25.641C16.8807 25.641 18 24.5217 18 23.141C18 21.7603 16.8807 20.641 15.5 20.641C14.1193 20.641 13 21.7603 13 23.141C13 24.5217 14.1193 25.641 15.5 25.641Z" fill="#232323" stroke="#232323" stroke-width="1.5" stroke-linecap="round" stroke-linejoin="round"/>
  <path d="M23.6348 25.641C25.0155 25.641 26.1348 24.5217 26.1348 23.141C26.1348 21.7603 25.0155 20.641 23.6348 20.641C22.2541 20.641 21.1348 21.7603 21.1348 23.141C21.1348 24.5217 22.2541 25.641 23.6348 25.641Z" fill="#232323" stroke="#232323" stroke-width="1.5" stroke-linecap="round" stroke-linejoin="round"/>
</svg>