<svg xmlns="http://www.w3.org/2000/svg" width="31" height="30" viewBox="0 0 31 30" fill="none">
  <path d="M24.6573 7.22215C25.5 8.48327 25.5 10.2388 25.5 13.75C25.5 17.2612 25.5 19.0167 24.6573 20.2779C24.2926 20.8238 23.8238 21.2926 23.2779 21.6573C22.1762 22.3935 20.6971 22.4865 18 22.4983V22.5L16.618 25.2639C16.1574 26.1852 14.8426 26.1852 14.382 25.2639L13 22.5V22.4983C10.3029 22.4865 8.82384 22.3935 7.72215 21.6573C7.1762 21.2926 6.70744 20.8238 6.34265 20.2779C5.5 19.0167 5.5 17.2612 5.5 13.75C5.5 10.2388 5.5 8.48327 6.34265 7.22215C6.70744 6.6762 7.1762 6.20744 7.72215 5.84265C8.98327 5 10.7388 5 14.25 5H16.75C20.2612 5 22.0167 5 23.2779 5.84265C23.8238 6.20744 24.2926 6.6762 24.6573 7.22215Z" stroke="#A5A5A5" stroke-width="1.5" stroke-linecap="round" stroke-linejoin="round"/>
  <circle cx="20.5" cy="13.75" r="1.25" fill="#A5A5A5"/>
  <circle cx="15.5" cy="13.75" r="1.25" fill="#A5A5A5"/>
  <circle cx="10.5" cy="13.75" r="1.25" fill="#A5A5A5"/>
</svg>