<svg width="276" height="146" viewBox="0 0 276 146" fill="none" xmlns="http://www.w3.org/2000/svg">
<path fill-rule="evenodd" clip-rule="evenodd" d="M236.618 39.7348C233.899 73.2414 215.413 111.556 183.484 143.485C169.234 157.735 153.711 169.308 137.912 177.996C161.91 194.547 203.53 184.332 234.948 152.913C268.924 118.938 278.104 73.0332 255.454 50.3828C250.258 45.1865 243.838 41.6655 236.618 39.7348ZM226.368 38.0831C225.96 70.0085 209.125 107.526 178.325 138.326C163.761 152.891 147.694 164.333 131.426 172.391C110.046 149.403 119.454 104.358 152.924 70.8889C175.578 48.2342 203.537 36.6036 226.368 38.0831ZM226.161 30.6979C201.936 30.7541 173.094 43.6473 149.388 67.3534C113.595 103.147 102.452 150.649 122.927 176.288C86.5858 191.616 50.3731 189.897 28.7222 168.247C-4.32721 135.197 9.06871 68.2175 58.6428 18.6433C108.217 -30.9308 175.197 -44.3267 208.246 -11.2773C219.156 -0.367413 225.005 14.2399 226.161 30.6979ZM236.968 31.589C237.042 10.9851 230.758 -7.33723 217.532 -20.563C181.633 -56.4615 108.187 -41.2179 53.4841 13.4846C-1.21837 68.1871 -16.462 141.634 19.4365 177.532C44.2466 202.342 86.9913 202.725 129.088 182.536C154.614 203.519 202.475 192.458 238.484 156.449C275.974 118.958 286.421 68.6219 261.818 44.0188C255.163 37.3639 246.625 33.2734 236.968 31.589Z" fill="#D2FF95"/>
</svg>
