<svg xmlns="http://www.w3.org/2000/svg" width="13" height="12" viewBox="0 0 13 12" fill="none">
  <path d="M3.6752 7.86248C3.11686 7.86248 2.64811 7.65623 2.26895 7.24373C1.88978 6.83123 1.7002 6.33539 1.7002 5.75623C1.7002 5.17706 1.90436 4.68331 2.3127 4.27498C2.72103 3.86664 3.21686 3.66248 3.8002 3.66248C4.38353 3.66248 4.87936 3.86664 5.2877 4.27498C5.69603 4.68331 5.9002 5.17914 5.9002 5.76248C5.9002 5.97848 5.86686 6.18648 5.8002 6.38648C5.73353 6.58648 5.64186 6.77848 5.5252 6.96248H7.4752C7.35853 6.77848 7.26686 6.58648 7.2002 6.38648C7.13353 6.18648 7.1002 5.97848 7.1002 5.76248C7.1002 5.17914 7.30436 4.68331 7.7127 4.27498C8.12103 3.86664 8.61686 3.66248 9.2002 3.66248C9.78353 3.66248 10.2794 3.86664 10.6877 4.27498C11.096 4.68331 11.3002 5.17914 11.3002 5.76248C11.3002 6.33748 11.1127 6.83123 10.7377 7.24373C10.3627 7.65623 9.89603 7.86248 9.3377 7.86248H3.6752ZM3.79738 6.96248C4.13259 6.96248 4.41686 6.84675 4.6502 6.61529C4.88353 6.38384 5.0002 6.1005 5.0002 5.76529C5.0002 5.43008 4.88447 5.14581 4.65301 4.91248C4.42156 4.67914 4.13822 4.56248 3.80301 4.56248C3.4678 4.56248 3.18353 4.67821 2.9502 4.90966C2.71686 5.14111 2.6002 5.42445 2.6002 5.75966C2.6002 6.09487 2.71592 6.37914 2.94738 6.61248C3.17883 6.84581 3.46217 6.96248 3.79738 6.96248ZM9.19738 6.96248C9.53259 6.96248 9.81686 6.84675 10.0502 6.61529C10.2835 6.38384 10.4002 6.1005 10.4002 5.76529C10.4002 5.43008 10.2845 5.14581 10.053 4.91248C9.82156 4.67914 9.53822 4.56248 9.20301 4.56248C8.8678 4.56248 8.58353 4.67821 8.3502 4.90966C8.11686 5.14111 8.0002 5.42445 8.0002 5.75966C8.0002 6.09487 8.11592 6.37914 8.34738 6.61248C8.57883 6.84581 8.86217 6.96248 9.19738 6.96248Z" fill="#232323"/>
</svg>