<svg xmlns="http://www.w3.org/2000/svg" width="32" height="32" viewBox="0 0 32 32" fill="none">
  <path d="M12.2569 24.6667C11.7698 24.6667 11.3212 24.5496 10.9112 24.3153C10.5014 24.0811 10.1567 23.7658 9.87688 23.3693L5.51522 17.2163C5.25833 16.8466 5.12988 16.4419 5.12988 16.0023C5.12988 15.5626 5.25833 15.1563 5.51522 14.7837L9.87688 8.65633C10.1567 8.25989 10.5011 7.94022 10.9102 7.69733C11.3193 7.45467 11.768 7.33333 12.2562 7.33333H25.2479C25.819 7.33333 26.3093 7.53811 26.7189 7.94767C27.1284 8.35722 27.3332 8.84756 27.3332 9.41867V22.5813C27.3332 23.1524 27.1284 23.6428 26.7189 24.0523C26.3093 24.4619 25.819 24.6667 25.2479 24.6667H12.2569ZM12.0802 22.9913H25.2479C25.3503 22.9913 25.4443 22.9487 25.5299 22.8633C25.6152 22.7778 25.6579 22.6838 25.6579 22.5813V9.41867C25.6579 9.31622 25.6152 9.22222 25.5299 9.13667C25.4443 9.05133 25.3503 9.00867 25.2479 9.00867H12.0816C11.9533 9.00867 11.8314 9.04067 11.7159 9.10467C11.6006 9.16889 11.5087 9.248 11.4402 9.342L6.90488 15.7563C6.85377 15.8248 6.82822 15.906 6.82822 16C6.82822 16.094 6.85377 16.1752 6.90488 16.2437L11.4392 22.658C11.5077 22.752 11.5996 22.8311 11.7149 22.8953C11.8302 22.9593 11.952 22.9913 12.0802 22.9913ZM18.4359 17.1793L21.4479 20.183C21.6086 20.3437 21.8015 20.4261 22.0269 20.4303C22.2522 20.4346 22.4494 20.3521 22.6186 20.183C22.7879 20.0137 22.8726 19.8148 22.8726 19.5863C22.8726 19.3579 22.7879 19.159 22.6186 18.9897L19.6152 16L22.6049 13.0103C22.7656 12.8497 22.8481 12.6552 22.8526 12.427C22.8568 12.1988 22.7742 12 22.6049 11.8307C22.4358 11.6616 22.237 11.577 22.0086 11.577C21.7799 11.577 21.581 11.6616 21.4119 11.8307L18.4359 14.8207L15.4322 11.817C15.2649 11.6563 15.0688 11.5739 14.8439 11.5697C14.619 11.5654 14.422 11.6479 14.2529 11.817C14.0836 11.9863 13.9989 12.1852 13.9989 12.4137C13.9989 12.6421 14.0836 12.841 14.2529 13.0103L17.2562 16L14.2529 18.9897C14.0922 19.1503 14.0098 19.3448 14.0056 19.573C14.0011 19.8012 14.0836 20 14.2529 20.1693C14.422 20.3384 14.6209 20.423 14.8496 20.423C15.078 20.423 15.2768 20.3384 15.4459 20.1693L18.4359 17.1793Z" fill="#5E5E5E"/>
</svg>