<svg xmlns="http://www.w3.org/2000/svg" width="20" height="20" viewBox="0 0 20 20" fill="none">
  <path d="M9.25 10.75H4.25C4.0375 10.75 3.85938 10.6781 3.71563 10.5343C3.57187 10.3904 3.5 10.2122 3.5 9.99965C3.5 9.78705 3.57187 9.60896 3.71563 9.46538C3.85938 9.32179 4.0375 9.25 4.25 9.25H9.25V4.25C9.25 4.0375 9.3219 3.85938 9.4657 3.71563C9.60952 3.57187 9.78772 3.5 10.0003 3.5C10.2129 3.5 10.391 3.57187 10.5346 3.71563C10.6782 3.85938 10.7499 4.0375 10.7499 4.25V9.25H15.75C15.9625 9.25 16.1406 9.3219 16.2843 9.4657C16.4281 9.60952 16.5 9.78772 16.5 10.0003C16.5 10.2129 16.4281 10.391 16.2843 10.5346C16.1406 10.6782 15.9625 10.75 15.75 10.75H10.7499V15.75C10.7499 15.9625 10.6781 16.1406 10.5342 16.2843C10.3904 16.4281 10.2122 16.5 9.99965 16.5C9.78705 16.5 9.60896 16.4281 9.46537 16.2843C9.32179 16.1406 9.25 15.9625 9.25 15.75V10.75Z" fill="#232323"/>
</svg>