<svg xmlns="http://www.w3.org/2000/svg" width="20" height="20" viewBox="0 0 20 20" fill="none">
  <path d="M10.8748 9.99984L7.45817 6.58317C7.30539 6.43039 7.229 6.25331 7.229 6.05192C7.229 5.85053 7.30539 5.67345 7.45817 5.52067C7.61095 5.36789 7.78803 5.2915 7.98942 5.2915C8.19081 5.2915 8.37024 5.37024 8.52771 5.52771L12.479 9.479C12.5484 9.554 12.6005 9.63525 12.6353 9.72275C12.67 9.81025 12.6873 9.904 12.6873 10.004C12.6873 10.104 12.67 10.1978 12.6353 10.2853C12.6005 10.3728 12.5484 10.4512 12.479 10.5207L8.52771 14.472C8.37024 14.6294 8.19428 14.7047 7.99984 14.6978C7.80539 14.6908 7.63178 14.6109 7.479 14.4582C7.32623 14.3054 7.24984 14.1283 7.24984 13.9269C7.24984 13.7255 7.32623 13.5484 7.479 13.3957L10.8748 9.99984Z" fill="#5E5E5E"/>
</svg>