<svg xmlns="http://www.w3.org/2000/svg" width="33" height="32" viewBox="0 0 33 32" fill="none">
  <path d="M8.3325 23.395C9.59805 22.5026 10.8928 21.8068 12.2168 21.3077C13.5408 20.8086 14.9686 20.559 16.5002 20.559C18.0317 20.559 19.4617 20.8086 20.7902 21.3077C22.1188 21.8068 23.4159 22.5026 24.6815 23.395C25.6039 22.3426 26.3029 21.2005 26.7785 19.9687C27.2538 18.7367 27.4915 17.4138 27.4915 16C27.4915 12.918 26.4302 10.3156 24.3075 8.19268C22.1846 6.07001 19.5822 5.00868 16.5002 5.00868C13.4182 5.00868 10.8157 6.07001 8.69283 8.19268C6.57016 10.3156 5.50883 12.918 5.50883 16C5.50883 17.4138 5.74883 18.7367 6.22883 19.9687C6.70883 21.2005 7.41005 22.3426 8.3325 23.395ZM16.4955 16.8377C15.2906 16.8377 14.2762 16.4241 13.4522 15.597C12.6284 14.7699 12.2165 13.7539 12.2165 12.549C12.2165 11.3443 12.6301 10.33 13.4572 9.50601C14.2841 8.68201 15.2999 8.27001 16.5048 8.27001C17.7097 8.27001 18.7242 8.68357 19.5482 9.51068C20.3719 10.3378 20.7838 11.3538 20.7838 12.5587C20.7838 13.7633 20.3703 14.7777 19.5432 15.6017C18.7163 16.4257 17.7004 16.8377 16.4955 16.8377ZM16.5105 28.6667C14.7538 28.6667 13.1057 28.3359 11.5662 27.6743C10.0268 27.0128 8.68405 26.1082 7.53783 24.9607C6.39139 23.8131 5.48739 22.472 4.82583 20.9373C4.16427 19.4027 3.8335 17.7563 3.8335 15.9983C3.8335 14.2406 4.16427 12.5948 4.82583 11.061C5.48739 9.52746 6.39194 8.1869 7.5395 7.03934C8.68705 5.89179 10.0282 4.98723 11.5628 4.32568C13.0975 3.66412 14.7438 3.33334 16.5018 3.33334C18.2596 3.33334 19.9054 3.66412 21.4392 4.32568C22.9727 4.98723 24.3133 5.89179 25.4608 7.03934C26.6084 8.1869 27.5129 9.52779 28.1745 11.062C28.8361 12.596 29.1668 14.2386 29.1668 15.9897C29.1668 17.7463 28.8361 19.3945 28.1745 20.934C27.5129 22.4733 26.6084 23.8161 25.4608 24.9623C24.3133 26.1088 22.9724 27.0128 21.4382 27.6743C19.9042 28.3359 18.2616 28.6667 16.5105 28.6667ZM16.5002 26.9913C17.7275 26.9913 18.9291 26.7956 20.1048 26.404C21.2806 26.0122 22.3679 25.4069 23.3668 24.588C22.3679 23.8427 21.2897 23.264 20.1322 22.852C18.9746 22.44 17.7639 22.234 16.5002 22.234C15.2364 22.234 14.0236 22.4379 12.8618 22.8457C11.6998 23.2535 10.6266 23.8342 9.64216 24.588C10.6353 25.4069 11.7197 26.0122 12.8955 26.404C14.0713 26.7956 15.2728 26.9913 16.5002 26.9913ZM16.5015 15.1623C17.2539 15.1623 17.8766 14.9156 18.3695 14.422C18.8624 13.9282 19.1088 13.3051 19.1088 12.5527C19.1088 11.8002 18.8619 11.1776 18.3682 10.6847C17.8746 10.1918 17.2515 9.94534 16.4988 9.94534C15.7464 9.94534 15.1237 10.1921 14.6308 10.6857C14.1379 11.1795 13.8915 11.8026 13.8915 12.555C13.8915 13.3075 14.1384 13.9301 14.6322 14.423C15.1257 14.9159 15.7488 15.1623 16.5015 15.1623Z" fill="#5F6368"/>
</svg>