<svg xmlns="http://www.w3.org/2000/svg" width="20" height="20" viewBox="0 0 20 20" fill="none">
  <path d="M9.99984 17C9.7915 17 9.59012 16.9549 9.39567 16.8646C9.20123 16.7743 9.02762 16.6458 8.87484 16.4792L2.62484 9.4375C2.49984 9.29861 2.40262 9.14236 2.33317 8.96875C2.26373 8.79514 2.229 8.61806 2.229 8.4375C2.229 8.34028 2.24289 8.25 2.27067 8.16667C2.29845 8.08333 2.32623 7.99306 2.354 7.89583L3.62484 4.6875C3.73595 4.40972 3.91998 4.18403 4.17692 4.01042C4.43387 3.83681 4.71512 3.75 5.02067 3.75H14.979C15.2846 3.75 15.5658 3.83681 15.8228 4.01042C16.0797 4.18403 16.2637 4.40972 16.3748 4.6875L17.6457 7.89583C17.6734 7.99306 17.7012 8.08333 17.729 8.16667C17.7568 8.25 17.7707 8.34028 17.7707 8.4375C17.7707 8.61806 17.7359 8.79514 17.6665 8.96875C17.5971 9.14236 17.4998 9.29861 17.3748 9.4375L11.1248 16.4792C10.9721 16.6458 10.7984 16.7743 10.604 16.8646C10.4096 16.9549 10.2082 17 9.99984 17ZM8.20817 8H11.7915L10.4165 5.25H9.58317L8.20817 8ZM9.24984 14.6458V9.5H4.6665L9.24984 14.6458ZM10.7498 14.6458L15.3332 9.5H10.7498V14.6458ZM13.4582 8H16.0832L14.9998 5.25H12.0832L13.4582 8ZM3.9165 8H6.5415L7.9165 5.25H5.02067L3.9165 8Z" fill="#232323"/>
</svg>