<svg width="28" height="28" viewBox="0 0 28 28" fill="none" xmlns="http://www.w3.org/2000/svg">
<rect width="28" height="28" rx="8" fill="#383838"/>
<path d="M13.25 14.75H8.25C8.0375 14.75 7.85938 14.6781 7.71563 14.5343C7.57187 14.3904 7.5 14.2122 7.5 13.9997C7.5 13.7871 7.57187 13.609 7.71563 13.4654C7.85938 13.3218 8.0375 13.25 8.25 13.25H13.25V8.25C13.25 8.0375 13.3219 7.85938 13.4657 7.71563C13.6095 7.57187 13.7877 7.5 14.0003 7.5C14.2129 7.5 14.391 7.57187 14.5346 7.71563C14.6782 7.85938 14.7499 8.0375 14.7499 8.25V13.25H19.75C19.9625 13.25 20.1406 13.3219 20.2843 13.4657C20.4281 13.6095 20.5 13.7877 20.5 14.0003C20.5 14.2129 20.4281 14.391 20.2843 14.5346C20.1406 14.6782 19.9625 14.75 19.75 14.75H14.7499V19.75C14.7499 19.9625 14.6781 20.1406 14.5342 20.2843C14.3904 20.4281 14.2122 20.5 13.9997 20.5C13.787 20.5 13.609 20.4281 13.4654 20.2843C13.3218 20.1406 13.25 19.9625 13.25 19.75V14.75Z" fill="white"/>
</svg>
