<svg xmlns="http://www.w3.org/2000/svg" width="33" height="32" viewBox="0 0 33 32" fill="none">
  <path d="M16.5 20.0777C16.3518 20.0777 16.2148 20.0537 16.089 20.0057C15.963 19.9575 15.8408 19.8741 15.7223 19.7557L9.27767 13.311C9.063 13.0963 8.95934 12.8335 8.96667 12.5223C8.97401 12.2112 9.08512 11.9482 9.30001 11.7333C9.51489 11.5185 9.77789 11.411 10.089 11.411C10.4001 11.411 10.663 11.5185 10.8777 11.7333L16.5 17.3777L22.1443 11.7333C22.3592 11.5185 22.6186 11.4148 22.9223 11.4223C23.2259 11.4297 23.4851 11.5408 23.7 11.7557C23.9149 11.9703 24.0223 12.2332 24.0223 12.5443C24.0223 12.8555 23.9149 13.1185 23.7 13.3333L17.2777 19.7557C17.1592 19.8741 17.037 19.9575 16.911 20.0057C16.7852 20.0537 16.6482 20.0777 16.5 20.0777Z" fill="#5E5E5E"/>
</svg>