<svg xmlns="http://www.w3.org/2000/svg" width="24" height="24" viewBox="0 0 24 24" fill="none">
  <path d="M3.03429 11.9999L10.267 19.2326C10.449 19.4146 10.5417 19.6402 10.545 19.9094C10.5482 20.1787 10.4588 20.4044 10.2768 20.5864C10.0946 20.7684 9.86896 20.8594 9.59979 20.8594C9.33063 20.8594 9.10496 20.7684 8.92279 20.5864L1.47679 13.1306C1.31263 12.9664 1.19529 12.7889 1.12479 12.5979C1.05429 12.4069 1.01904 12.2075 1.01904 11.9999C1.01904 11.7922 1.05429 11.5929 1.12479 11.4019C1.19529 11.2109 1.31263 11.0333 1.47679 10.8691L8.92279 3.42285C9.10496 3.24085 9.32904 3.14827 9.59504 3.1451C9.86104 3.14193 10.085 3.23135 10.267 3.41335C10.449 3.59535 10.54 3.82102 10.54 4.09035C10.54 4.35952 10.449 4.5851 10.267 4.7671L3.03429 11.9999Z" fill="#232323"/>
</svg>