<svg width="24" height="24" viewBox="0 0 24 24" fill="none" xmlns="http://www.w3.org/2000/svg">
<g id="close">
<path id="Vector" d="M11.999 13.2695L7.11129 18.1571C6.94515 18.3233 6.73631 18.4083 6.48477 18.4121C6.23325 18.416 6.02057 18.331 5.84673 18.1571C5.67287 17.9833 5.58594 17.7725 5.58594 17.5249C5.58594 17.2772 5.67287 17.0664 5.84673 16.8926L10.7344 12.0049L5.84673 7.11715C5.68057 6.95101 5.59557 6.74217 5.59173 6.49063C5.58787 6.23911 5.67287 6.02643 5.84673 5.85259C6.02057 5.67873 6.23133 5.5918 6.47901 5.5918C6.72669 5.5918 6.93745 5.67873 7.11129 5.85259L11.999 10.7403L16.8867 5.85259C17.0529 5.68643 17.2617 5.60143 17.5132 5.59759C17.7648 5.59373 17.9774 5.67873 18.1513 5.85259C18.3251 6.02643 18.4121 6.23719 18.4121 6.48487C18.4121 6.73255 18.3251 6.94331 18.1513 7.11715L13.2636 12.0049L18.1513 16.8926C18.3174 17.0587 18.4024 17.2676 18.4063 17.5191C18.4101 17.7706 18.3251 17.9833 18.1513 18.1571C17.9774 18.331 17.7667 18.4179 17.519 18.4179C17.2713 18.4179 17.0606 18.331 16.8867 18.1571L11.999 13.2695Z" fill="#232323"/>
</g>
</svg>
