<svg xmlns="http://www.w3.org/2000/svg" width="33" height="32" viewBox="0 0 33 32" fill="none">
  <path d="M8.03317 23.2666C9.34428 22.326 10.6924 21.5982 12.0775 21.0833C13.4628 20.5684 14.9369 20.311 16.4998 20.311C18.0627 20.311 19.5405 20.5684 20.9332 21.0833C22.3258 21.5982 23.6777 22.326 24.9888 23.2666C25.8999 22.1628 26.5647 21.011 26.9832 19.811C27.4016 18.611 27.6108 17.3406 27.6108 16C27.6108 12.8666 26.5424 10.2314 24.4055 8.09429C22.2684 5.9574 19.6332 4.88896 16.4998 4.88896C13.3665 4.88896 10.7313 5.9574 8.59417 8.09429C6.45728 10.2314 5.38884 12.8666 5.38884 16C5.38884 17.3406 5.60173 18.611 6.0275 19.811C6.4535 21.011 7.12206 22.1628 8.03317 23.2666ZM16.4958 17.111C15.2023 17.111 14.1128 16.6671 13.2275 15.7793C12.3424 14.8913 11.8998 13.8005 11.8998 12.507C11.8998 11.2134 12.3438 10.1241 13.2318 9.23896C14.1196 8.35363 15.2103 7.91096 16.5038 7.91096C17.7974 7.91096 18.8868 8.35496 19.7722 9.24296C20.6573 10.131 21.0998 11.2217 21.0998 12.5153C21.0998 13.8088 20.6558 14.8982 19.7678 15.7833C18.8801 16.6684 17.7894 17.111 16.4958 17.111ZM16.5102 29.3333C14.6737 29.3333 12.9444 28.9833 11.3222 28.2833C9.69995 27.5833 8.28506 26.6296 7.0775 25.4223C5.87017 24.2147 4.9165 22.8016 4.2165 21.183C3.5165 19.5643 3.1665 17.8346 3.1665 15.994C3.1665 14.1535 3.5165 12.4258 4.2165 10.811C4.9165 9.19629 5.87017 7.78518 7.0775 6.57763C8.28506 5.37029 9.69817 4.41663 11.3168 3.71663C12.9355 3.01663 14.6652 2.66663 16.5058 2.66663C18.3463 2.66663 20.0739 3.01663 21.6888 3.71663C23.3035 4.41663 24.7146 5.37029 25.9222 6.57763C27.1295 7.78518 28.0832 9.19651 28.7832 10.8116C29.4832 12.427 29.8332 14.153 29.8332 15.9896C29.8332 17.8261 29.4832 19.5554 28.7832 21.1776C28.0832 22.7998 27.1295 24.2147 25.9222 25.4223C24.7146 26.6296 23.3033 27.5833 21.6882 28.2833C20.0728 28.9833 18.3468 29.3333 16.5102 29.3333ZM16.4998 27.111C17.7072 27.111 18.8738 26.9351 19.9998 26.5833C21.1258 26.2315 22.2111 25.6518 23.2555 24.8443C22.2111 24.0963 21.1222 23.5241 19.9888 23.1276C18.8555 22.7314 17.6925 22.5333 16.4998 22.5333C15.3072 22.5333 14.1442 22.7314 13.0108 23.1276C11.8775 23.5241 10.7886 24.0963 9.74417 24.8443C10.7886 25.6518 11.8738 26.2315 12.9998 26.5833C14.1258 26.9351 15.2925 27.111 16.4998 27.111ZM16.4998 14.889C17.1961 14.889 17.7664 14.6667 18.2108 14.2223C18.6553 13.7778 18.8775 13.2074 18.8775 12.511C18.8775 11.8147 18.6553 11.2444 18.2108 10.8C17.7664 10.3555 17.1961 10.1333 16.4998 10.1333C15.8036 10.1333 15.2333 10.3555 14.7888 10.8C14.3444 11.2444 14.1222 11.8147 14.1222 12.511C14.1222 13.2074 14.3444 13.7778 14.7888 14.2223C15.2333 14.6667 15.8036 14.889 16.4998 14.889Z" fill="currentColor"/>
</svg>