<svg width="81" height="80" viewBox="0 0 81 80" fill="none" xmlns="http://www.w3.org/2000/svg">
<path fill-rule="evenodd" clip-rule="evenodd" d="M40.5 0C18.408 0 0.5 17.908 0.5 40C0.5 62.092 18.408 80 40.5 80C62.592 80 80.5 62.092 80.5 40C80.5 17.908 62.592 0 40.5 0ZM26.5 30C26.5 28.1615 26.8621 26.341 27.5657 24.6424C28.2693 22.9439 29.3005 21.4005 30.6005 20.1005C31.9005 18.8005 33.4439 17.7693 35.1424 17.0657C36.841 16.3621 38.6615 16 40.5 16C42.3385 16 44.159 16.3621 45.8576 17.0657C47.5561 17.7693 49.0995 18.8005 50.3995 20.1005C51.6995 21.4005 52.7307 22.9439 53.4343 24.6424C54.1379 26.341 54.5 28.1615 54.5 30C54.5 33.713 53.025 37.274 50.3995 39.8995C47.774 42.525 44.213 44 40.5 44C36.787 44 33.226 42.525 30.6005 39.8995C27.975 37.274 26.5 33.713 26.5 30ZM65.532 59.936C62.5377 63.7025 58.7312 66.7438 54.3967 68.8328C50.0621 70.9218 45.3117 72.0045 40.5 72C35.6883 72.0045 30.9379 70.9218 26.6033 68.8328C22.2688 66.7438 18.4623 63.7025 15.468 59.936C21.952 55.284 30.8 52 40.5 52C50.2 52 59.048 55.284 65.532 59.936Z" fill="#A5A5A5"/>
</svg>
