<svg xmlns="http://www.w3.org/2000/svg" width="41" height="40" viewBox="0 0 41 40" fill="none">
  <path d="M32.8389 34.1667C29.8217 34.1667 26.7385 33.4261 23.5893 31.945C20.4402 30.4639 17.5147 28.3725 14.8131 25.6708C12.1222 22.9695 10.0363 20.0468 8.55516 16.9029C7.07405 13.759 6.3335 10.6785 6.3335 7.66126C6.3335 7.14987 6.50766 6.71737 6.856 6.36376C7.20433 6.01015 7.63419 5.83334 8.14558 5.83334H13.1306C13.5586 5.83334 13.926 5.97348 14.2327 6.25376C14.5391 6.53404 14.7475 6.89112 14.8581 7.32501L15.841 11.9467C15.9002 12.372 15.8856 12.7508 15.7972 13.0833C15.7089 13.4158 15.5464 13.6932 15.3097 13.9154L11.3985 17.7242C12.101 18.9531 12.8604 20.0986 13.6768 21.1608C14.4935 22.2231 15.377 23.2261 16.3272 24.17C17.3242 25.1856 18.3847 26.1175 19.5089 26.9658C20.6328 27.8142 21.8389 28.5908 23.1272 29.2958L26.8956 25.4446C27.1675 25.1504 27.4786 24.9499 27.8289 24.8429C28.1789 24.7363 28.5479 24.7107 28.936 24.7663L33.1752 25.6742C33.6146 25.7781 33.9731 25.9996 34.2506 26.3388C34.5281 26.6777 34.6668 27.064 34.6668 27.4979V32.3546C34.6668 32.866 34.49 33.2958 34.1364 33.6442C33.7828 33.9925 33.3503 34.1667 32.8389 34.1667Z" fill="#DBDBDB"/>
</svg>