<svg xmlns="http://www.w3.org/2000/svg" width="33" height="32" viewBox="0 0 33 32" fill="none">
  <path d="M16.4248 27.3333C13.576 27.3333 11.1045 26.4117 9.01052 24.5683C6.91652 22.725 5.67774 20.4153 5.29418 17.6393C5.25552 17.4073 5.30696 17.1991 5.44852 17.0147C5.59007 16.83 5.78463 16.7317 6.03218 16.7197C6.26263 16.7077 6.46118 16.7758 6.62785 16.924C6.79452 17.072 6.90407 17.2689 6.95652 17.5147C7.32296 19.848 8.39407 21.7885 10.1698 23.3363C11.9456 24.8841 14.0306 25.658 16.4248 25.658C19.1333 25.658 21.4283 24.7112 23.3098 22.8177C25.1916 20.9239 26.1325 18.6229 26.1325 15.9147C26.1325 13.2393 25.1871 10.975 23.2962 9.12166C21.4053 7.26855 19.1148 6.34199 16.4248 6.34199C14.9833 6.34199 13.6266 6.65943 12.3548 7.29432C11.0831 7.92944 9.97374 8.78799 9.02685 9.86999H11.5908C11.832 9.86999 12.0318 9.94932 12.1905 10.108C12.3492 10.2667 12.4285 10.4667 12.4285 10.708C12.4285 10.9493 12.3492 11.1492 12.1905 11.3077C12.0318 11.4661 11.832 11.5453 11.5908 11.5453H7.21152C6.91218 11.5453 6.66352 11.4463 6.46552 11.2483C6.26752 11.0503 6.16852 10.8017 6.16852 10.5023V6.12832C6.16852 5.89277 6.24796 5.69421 6.40685 5.53266C6.56552 5.37132 6.76552 5.29066 7.00685 5.29066C7.24796 5.29066 7.44774 5.37132 7.60618 5.53266C7.76463 5.69421 7.84385 5.89277 7.84385 6.12832V8.64799C8.93496 7.40399 10.2247 6.42943 11.7132 5.72432C13.2014 5.01921 14.772 4.66666 16.4248 4.66666C17.9982 4.66666 19.4742 4.96188 20.8528 5.55232C22.2313 6.14255 23.4362 6.94877 24.4675 7.97099C25.4988 8.99321 26.3134 10.189 26.9112 11.5583C27.509 12.9277 27.8078 14.396 27.8078 15.9633C27.8078 17.5364 27.509 19.0139 26.9112 20.3957C26.3134 21.7774 25.4988 22.9803 24.4675 24.0043C23.4362 25.0281 22.2313 25.8389 20.8528 26.4367C19.4742 27.0344 17.9982 27.3333 16.4248 27.3333ZM17.3642 15.6307L21.2788 19.501C21.4395 19.6672 21.522 19.8668 21.5262 20.0997C21.5304 20.3323 21.448 20.5333 21.2788 20.7027C21.1095 20.8662 20.913 20.948 20.6892 20.948C20.4652 20.948 20.2686 20.8662 20.0995 20.7027L16.0012 16.64C15.8912 16.5302 15.8116 16.4108 15.7625 16.2817C15.7136 16.1528 15.6892 16.0219 15.6892 15.889V10.1213C15.6892 9.88021 15.7685 9.68032 15.9272 9.52166C16.0858 9.36299 16.2858 9.28366 16.5272 9.28366C16.7685 9.28366 16.9683 9.36299 17.1265 9.52166C17.285 9.68032 17.3642 9.88021 17.3642 10.1213V15.6307Z" fill="#5E5E5E"/>
</svg>