<svg xmlns="http://www.w3.org/2000/svg" width="31" height="30" viewBox="0 0 31 30" fill="none">
  <path d="M6.8098 23.6498V12.4198C6.8098 12.1098 6.8798 11.8198 7.0198 11.5398C7.1598 11.2598 7.3498 11.0298 7.5998 10.8498L14.3798 5.6898C14.7198 5.4298 15.1098 5.2998 15.5498 5.2998C15.9898 5.2998 16.3798 5.4298 16.7298 5.6898L23.5198 10.8498C23.7598 11.0298 23.9598 11.2598 24.0998 11.5398C24.2398 11.8198 24.3098 12.1098 24.3098 12.4198V23.6498C24.3098 23.8898 24.2198 24.0998 24.0298 24.2898C23.8398 24.4798 23.6298 24.5698 23.3898 24.5698H18.3598C18.0798 24.5698 17.8498 24.4798 17.6598 24.2898C17.4698 24.0998 17.3798 23.8698 17.3798 23.5898V17.5298C17.3798 17.1998 17.1098 16.9298 16.7798 16.9298H14.3198C13.9898 16.9298 13.7198 17.1998 13.7198 17.5298V23.5898C13.7198 23.8698 13.6298 24.0998 13.4398 24.2898C13.2498 24.4798 13.0198 24.5698 12.7398 24.5698H7.7198C7.4798 24.5698 7.2698 24.4798 7.0798 24.2898C6.8898 24.0998 6.7998 23.8898 6.7998 23.6498H6.8098Z" stroke="#A5A5A5" stroke-width="1.5" stroke-linecap="round" stroke-linejoin="round"/>
</svg>