<svg xmlns="http://www.w3.org/2000/svg" width="32" height="32" viewBox="0 0 33 32" fill="none">
  <path d="M16.4982 30.6667C15.8255 30.6667 15.2503 30.4272 14.7725 29.948C14.2947 29.4689 14.0558 28.893 14.0558 28.2204C14.0558 27.5475 14.2954 26.9722 14.7745 26.4944C15.2534 26.0166 15.8293 25.7777 16.5022 25.7777C17.1748 25.7777 17.7501 26.0173 18.2278 26.4964C18.7056 26.9755 18.9445 27.5515 18.9445 28.2244C18.9445 28.897 18.7049 29.4723 18.2258 29.95C17.7469 30.4278 17.1711 30.6667 16.4982 30.6667ZM8.27583 6.22237C7.60316 6.22237 7.02794 5.98282 6.55016 5.50371C6.07239 5.0246 5.8335 4.4486 5.8335 3.77571C5.8335 3.10304 6.07305 2.52782 6.55216 2.05004C7.03127 1.57226 7.60716 1.33337 8.27983 1.33337C8.95272 1.33337 9.52805 1.57293 10.0058 2.05204C10.4836 2.53115 10.7225 3.10704 10.7225 3.77971C10.7225 4.4526 10.4829 5.02793 10.0038 5.50571C9.52472 5.98348 8.94872 6.22237 8.27583 6.22237ZM8.27583 14.3557C7.60316 14.3557 7.02794 14.1162 6.55016 13.637C6.07239 13.1579 5.8335 12.5819 5.8335 11.909C5.8335 11.2364 6.07305 10.6612 6.55216 10.1834C7.03127 9.7056 7.60716 9.46671 8.27983 9.46671C8.95272 9.46671 9.52805 9.70626 10.0058 10.1854C10.4836 10.6645 10.7225 11.2404 10.7225 11.913C10.7225 12.5859 10.4829 13.1613 10.0038 13.639C9.52472 14.1168 8.94872 14.3557 8.27583 14.3557ZM8.27583 22.511C7.60316 22.511 7.02794 22.2715 6.55016 21.7924C6.07239 21.3135 5.8335 20.7376 5.8335 20.0647C5.8335 19.392 6.07305 18.8168 6.55216 18.339C7.03127 17.8613 7.60716 17.6224 8.27983 17.6224C8.95272 17.6224 9.52805 17.8619 10.0058 18.341C10.4836 18.8199 10.7225 19.3958 10.7225 20.0687C10.7225 20.7414 10.4829 21.3166 10.0038 21.7944C9.52472 22.2722 8.94872 22.511 8.27583 22.511ZM24.7205 6.22237C24.0476 6.22237 23.4723 5.98282 22.9945 5.50371C22.5167 5.0246 22.2778 4.4486 22.2778 3.77571C22.2778 3.10304 22.5174 2.52782 22.9965 2.05004C23.4756 1.57226 24.0516 1.33337 24.7245 1.33337C25.3972 1.33337 25.9724 1.57293 26.4502 2.05204C26.9279 2.53115 27.1668 3.10704 27.1668 3.77971C27.1668 4.4526 26.9273 5.02793 26.4482 5.50571C25.9691 5.98348 25.3932 6.22237 24.7205 6.22237ZM16.4982 22.511C15.8255 22.511 15.2503 22.2715 14.7725 21.7924C14.2947 21.3135 14.0558 20.7376 14.0558 20.0647C14.0558 19.392 14.2954 18.8168 14.7745 18.339C15.2534 17.8613 15.8293 17.6224 16.5022 17.6224C17.1748 17.6224 17.7501 17.8619 18.2278 18.341C18.7056 18.8199 18.9445 19.3958 18.9445 20.0687C18.9445 20.7414 18.7049 21.3166 18.2258 21.7944C17.7469 22.2722 17.1711 22.511 16.4982 22.511ZM24.7205 22.511C24.0476 22.511 23.4723 22.2715 22.9945 21.7924C22.5167 21.3135 22.2778 20.7376 22.2778 20.0647C22.2778 19.392 22.5174 18.8168 22.9965 18.339C23.4756 17.8613 24.0516 17.6224 24.7245 17.6224C25.3972 17.6224 25.9724 17.8619 26.4502 18.341C26.9279 18.8199 27.1668 19.3958 27.1668 20.0687C27.1668 20.7414 26.9273 21.3166 26.4482 21.7944C25.9691 22.2722 25.3932 22.511 24.7205 22.511ZM24.7205 14.3557C24.0476 14.3557 23.4723 14.1162 22.9945 13.637C22.5167 13.1579 22.2778 12.5819 22.2778 11.909C22.2778 11.2364 22.5174 10.6612 22.9965 10.1834C23.4756 9.7056 24.0516 9.46671 24.7245 9.46671C25.3972 9.46671 25.9724 9.70626 26.4502 10.1854C26.9279 10.6645 27.1668 11.2404 27.1668 11.913C27.1668 12.5859 26.9273 13.1613 26.4482 13.639C25.9691 14.1168 25.3932 14.3557 24.7205 14.3557ZM16.4982 14.3557C15.8255 14.3557 15.2503 14.1162 14.7725 13.637C14.2947 13.1579 14.0558 12.5819 14.0558 11.909C14.0558 11.2364 14.2954 10.6612 14.7745 10.1834C15.2534 9.7056 15.8293 9.46671 16.5022 9.46671C17.1748 9.46671 17.7501 9.70626 18.2278 10.1854C18.7056 10.6645 18.9445 11.2404 18.9445 11.913C18.9445 12.5859 18.7049 13.1613 18.2258 13.639C17.7469 14.1168 17.1711 14.3557 16.4982 14.3557ZM16.4982 6.22237C15.8255 6.22237 15.2503 5.98282 14.7725 5.50371C14.2947 5.0246 14.0558 4.4486 14.0558 3.77571C14.0558 3.10304 14.2954 2.52782 14.7745 2.05004C15.2534 1.57226 15.8293 1.33337 16.5022 1.33337C17.1748 1.33337 17.7501 1.57293 18.2278 2.05204C18.7056 2.53115 18.9445 3.10704 18.9445 3.77971C18.9445 4.4526 18.7049 5.02793 18.2258 5.50571C17.7469 5.98348 17.1711 6.22237 16.4982 6.22237Z" fill="currentColor"/>
</svg>