<svg xmlns="http://www.w3.org/2000/svg" width="33" height="32" viewBox="0 0 33 32" fill="none">
  <path d="M8.49984 24L5.0555 27.4443C4.70728 27.7925 4.30539 27.8711 3.84984 27.68C3.39428 27.4886 3.1665 27.1472 3.1665 26.6556V4.88896C3.1665 4.28896 3.38684 3.76852 3.8275 3.32763C4.26839 2.88696 4.78884 2.66663 5.38884 2.66663H27.6108C28.2108 2.66663 28.7313 2.88696 29.1722 3.32763C29.6128 3.76852 29.8332 4.28896 29.8332 4.88896V21.7776C29.8332 22.3776 29.6128 22.8981 29.1722 23.339C28.7313 23.7796 28.2108 24 27.6108 24H8.49984ZM7.54417 21.7776H27.6108V4.88896H5.38884V24.0556L7.54417 21.7776ZM10.8555 14.6C11.2333 14.6 11.5499 14.4722 11.8055 14.2166C12.0611 13.9611 12.1888 13.6444 12.1888 13.2666C12.1888 12.8888 12.0611 12.5722 11.8055 12.3166C11.5499 12.0611 11.2333 11.9333 10.8555 11.9333C10.4777 11.9333 10.1611 12.0611 9.9055 12.3166C9.64995 12.5722 9.52217 12.8888 9.52217 13.2666C9.52217 13.6444 9.64995 13.9611 9.9055 14.2166C10.1611 14.4722 10.4777 14.6 10.8555 14.6ZM16.5665 14.6C16.9443 14.6 17.2609 14.4722 17.5165 14.2166C17.7721 13.9611 17.8998 13.6444 17.8998 13.2666C17.8998 12.8888 17.7721 12.5722 17.5165 12.3166C17.2609 12.0611 16.9443 11.9333 16.5665 11.9333C16.1887 11.9333 15.8721 12.0611 15.6165 12.3166C15.3609 12.5722 15.2332 12.8888 15.2332 13.2666C15.2332 13.6444 15.3609 13.9611 15.6165 14.2166C15.8721 14.4722 16.1887 14.6 16.5665 14.6ZM22.1222 14.6C22.4999 14.6 22.8166 14.4722 23.0722 14.2166C23.3277 13.9611 23.4555 13.6444 23.4555 13.2666C23.4555 12.8888 23.3277 12.5722 23.0722 12.3166C22.8166 12.0611 22.4999 11.9333 22.1222 11.9333C21.7444 11.9333 21.4277 12.0611 21.1722 12.3166C20.9166 12.5722 20.7888 12.8888 20.7888 13.2666C20.7888 13.6444 20.9166 13.9611 21.1722 14.2166C21.4277 14.4722 21.7444 14.6 22.1222 14.6Z" fill="currentColor"/>
</svg>