<svg xmlns="http://www.w3.org/2000/svg" width="33" height="32" viewBox="0 0 33 32" fill="none">
  <path d="M22.5888 19.3443C22.3368 19.1665 22.1886 18.9276 22.1441 18.6276C22.0997 18.3276 22.1664 18.0517 22.3441 17.8C22.5575 17.4691 22.7326 17.1156 22.8695 16.7396C23.0066 16.3636 23.1056 15.9801 23.1665 15.589C23.2258 15.2703 23.3622 15.0036 23.5758 14.789C23.7896 14.5741 24.0545 14.4666 24.3705 14.4666C24.6862 14.4666 24.9479 14.5783 25.1555 14.8016C25.3628 15.025 25.4442 15.2947 25.3998 15.611C25.3182 16.229 25.1757 16.8335 24.9721 17.4246C24.7684 18.0155 24.4887 18.5703 24.1331 19.089C23.9554 19.3407 23.7169 19.4907 23.4178 19.539C23.1187 19.587 22.8424 19.5221 22.5888 19.3443ZM16.1428 2.66663C17.1364 2.66663 17.9812 3.01451 18.6775 3.71029C19.3739 4.40585 19.7221 5.25052 19.7221 6.24429V13.3776C19.7221 13.7481 19.6068 14.0258 19.3761 14.211C19.1455 14.3963 18.8917 14.489 18.6148 14.489C18.3381 14.489 18.0831 14.3912 17.8498 14.1956C17.6165 14.0003 17.4998 13.7165 17.4998 13.3443V6.24429C17.4998 5.86029 17.3699 5.5384 17.1101 5.27863C16.8504 5.01885 16.5284 4.88896 16.1441 4.88896C15.7601 4.88896 15.4382 5.01885 15.1785 5.27863C14.9187 5.5384 14.7888 5.86029 14.7888 6.24429V8.42229C14.7888 8.79251 14.6735 9.07029 14.4428 9.25563C14.2121 9.44074 13.9584 9.53329 13.6815 9.53329C13.4048 9.53329 13.1498 9.43752 12.9165 9.24596C12.6831 9.0544 12.5665 8.77607 12.5665 8.41096V6.24429C12.5665 5.25052 12.9141 4.40585 13.6095 3.71029C14.305 3.01451 15.1495 2.66663 16.1428 2.66663ZM15.0331 26.889V23.611C12.9294 23.3592 11.1127 22.4981 9.58314 21.0276C8.05358 19.5574 7.15547 17.7518 6.8888 15.611C6.84436 15.2947 6.92647 15.025 7.13514 14.8016C7.34402 14.5783 7.60702 14.4666 7.92414 14.4666C8.24125 14.4666 8.5068 14.5752 8.7208 14.7923C8.9348 15.0096 9.06858 15.2788 9.12214 15.6C9.40347 17.326 10.2146 18.7352 11.5555 19.8276C12.8961 20.9203 14.4268 21.4666 16.1475 21.4666C16.9601 21.4666 17.7395 21.3364 18.4855 21.076C19.2317 20.8153 19.9106 20.4492 20.5221 19.9776L22.1108 21.5666C21.4368 22.1222 20.6905 22.5745 19.8718 22.9236C19.0529 23.2727 18.1808 23.5019 17.2555 23.611V26.889C17.2555 27.2036 17.1486 27.4675 16.9348 27.6806C16.721 27.8935 16.4562 28 16.1405 28C15.8245 28 15.5609 27.8935 15.3498 27.6806C15.1387 27.4675 15.0331 27.2036 15.0331 26.889ZM27.0331 29.4223L2.65547 5.04429C2.45547 4.84429 2.35547 4.59985 2.35547 4.31096C2.35547 4.02207 2.45547 3.77763 2.65547 3.57763C2.85547 3.37763 3.09991 3.27763 3.3888 3.27763C3.67769 3.27763 3.92214 3.37763 4.12214 3.57763L28.4998 27.9556C28.6998 28.1556 28.7998 28.4001 28.7998 28.689C28.7998 28.9778 28.6998 29.2223 28.4998 29.4223C28.2998 29.6223 28.0554 29.7223 27.7665 29.7223C27.4776 29.7223 27.2331 29.6223 27.0331 29.4223Z" fill="currentColor"/>
</svg>