<svg xmlns="http://www.w3.org/2000/svg" width="41" height="40" viewBox="0 0 41 40" fill="none">
  <path d="M20.5 13.75C23.7942 13.75 26.9899 14.4072 30.0871 15.7217C33.1843 17.0361 35.8508 18.9152 38.0865 21.3589C38.3707 21.673 38.5201 22.034 38.5347 22.4418C38.5493 22.8495 38.4053 23.1994 38.1026 23.4914L34.8814 26.6634C34.5851 26.9561 34.223 27.1199 33.7949 27.1548C33.3669 27.1897 32.9997 27.0918 32.6934 26.861L28.5353 23.7371C28.2896 23.5462 28.1062 23.3351 27.9851 23.1036C27.864 22.8721 27.8035 22.6167 27.8035 22.3375V17.1335C26.5456 16.6727 25.3216 16.3425 24.1314 16.1431C22.9413 15.9437 21.7308 15.844 20.5 15.844C19.2693 15.844 18.0588 15.9437 16.8686 16.1431C15.6784 16.3425 14.4544 16.6727 13.1966 17.1335V22.3375C13.1966 22.6167 13.136 22.8721 13.0149 23.1036C12.8939 23.3351 12.7105 23.5462 12.4647 23.7371L8.31736 26.861C7.96264 27.1217 7.58728 27.2328 7.19128 27.1944C6.79525 27.1559 6.4377 26.9789 6.11861 26.6634L2.89753 23.4914C2.59481 23.1994 2.45075 22.8495 2.46536 22.4418C2.47995 22.034 2.62934 21.673 2.91353 21.3589C5.14359 18.9152 7.80864 17.0361 10.9087 15.7217C14.0088 14.4072 17.2059 13.75 20.5 13.75Z" fill="white"/>
</svg>