<svg xmlns="http://www.w3.org/2000/svg" width="30" height="30" viewBox="0 0 30 30" fill="none">
  <path d="M27.3387 29.1665C24.3217 29.1665 21.2385 28.4259 18.0893 26.9448C14.9401 25.4637 12.0148 23.3724 9.3132 20.6708C6.62232 17.9692 4.53632 15.0465 3.0552 11.9027C1.57407 8.75881 0.833496 5.67834 0.833496 2.66125C0.833496 2.14986 1.00765 1.71735 1.35595 1.36371C1.70423 1.01007 2.13408 0.833252 2.6455 0.833252H7.63041C8.0585 0.833252 8.42584 0.973392 8.73245 1.25367C9.03909 1.53395 9.24761 1.89098 9.358 2.32475L10.3409 6.94646C10.4 7.37168 10.3854 7.7506 10.2971 8.08321C10.2088 8.41582 10.0464 8.69324 9.80991 8.91546L5.89862 12.7242C6.6009 13.9528 7.36033 15.0983 8.17691 16.1607C8.99352 17.223 9.8769 18.226 10.827 19.1698C11.8242 20.1854 12.8847 21.1174 14.0087 21.9657C15.1326 22.814 16.3388 23.5907 17.6273 24.2958L21.3955 20.4444C21.6675 20.1502 21.9786 19.9497 22.3287 19.8429C22.6787 19.736 23.0478 19.7104 23.436 19.766L27.6752 20.674C28.1147 20.778 28.4732 20.9996 28.7506 21.3386C29.028 21.6776 29.1667 22.064 29.1667 22.4978V27.3545C29.1667 27.8659 28.9899 28.2958 28.6363 28.644C28.2826 28.9924 27.8501 29.1665 27.3387 29.1665Z" fill="white"/>
</svg>