<svg xmlns="http://www.w3.org/2000/svg" width="33" height="32" viewBox="0 0 33 32" fill="none">
  <path d="M26.2777 15.9667C26.2777 13.9593 25.7259 12.1463 24.6223 10.5277C23.5186 8.90922 22.063 7.72222 20.2557 6.96667C19.9668 6.84067 19.7593 6.64256 19.6333 6.37233C19.5073 6.10189 19.4999 5.82967 19.611 5.55567C19.7297 5.25922 19.939 5.05178 20.239 4.93333C20.539 4.81489 20.8446 4.81856 21.1557 4.94433C23.3703 5.87033 25.1481 7.32778 26.489 9.31667C27.8297 11.3056 28.5 13.5222 28.5 15.9667C28.5 18.4111 27.8297 20.6278 26.489 22.6167C25.1481 24.6056 23.3703 26.063 21.1557 26.989C20.8446 27.1148 20.539 27.1184 20.239 27C19.939 26.8816 19.7297 26.6741 19.611 26.3777C19.4999 26.1037 19.5073 25.8314 19.6333 25.561C19.7593 25.2908 19.9668 25.0927 20.2557 24.9667C22.063 24.2111 23.5186 23.0241 24.6223 21.4057C25.7259 19.787 26.2777 17.974 26.2777 15.9667ZM9.83333 20H5.611C5.29256 20 5.02778 19.8944 4.81667 19.6833C4.60556 19.4722 4.5 19.2074 4.5 18.889V13.111C4.5 12.7926 4.60556 12.5278 4.81667 12.3167C5.02778 12.1056 5.29256 12 5.611 12H9.83333L14.611 7.22233C14.9592 6.87411 15.3611 6.79444 15.8167 6.98333C16.2722 7.17222 16.5 7.51478 16.5 8.011V23.989C16.5 24.4852 16.2722 24.8278 15.8167 25.0167C15.3611 25.2056 14.9592 25.1259 14.611 24.7777L9.83333 20ZM22.5 16C22.5 17.0816 22.237 18.0723 21.711 18.9723C21.1852 19.8723 20.4593 20.5741 19.5333 21.0777C19.3407 21.1814 19.1573 21.1759 18.9833 21.061C18.8093 20.9463 18.7223 20.7852 18.7223 20.5777V11.3777C18.7223 11.1703 18.8093 11.0092 18.9833 10.8943C19.1573 10.7797 19.3407 10.7741 19.5333 10.8777C20.4593 11.3888 21.1852 12.1037 21.711 13.0223C22.237 13.9408 22.5 14.9333 22.5 16ZM14.2777 10.8667L10.811 14.2223H6.72233V17.7777H10.811L14.2777 21.1557V10.8667Z" fill="currentColor"/>
</svg>