<svg xmlns="http://www.w3.org/2000/svg" width="49" height="48" viewBox="0 0 49 48" fill="none">
  <path d="M44.8851 0H25.1356C23.1393 0 21.5206 1.63778 21.5206 3.6577V10.6434C21.5206 12.5301 20.0596 14.1242 18.196 14.1766C16.2622 14.2312 14.6771 12.6611 14.6771 10.7154V3.6577C14.6771 1.63778 13.0584 0 11.0621 0H4.11495C2.11755 0 0.5 1.63778 0.5 3.6577V10.52C0.5 12.5399 2.11755 14.1777 4.11495 14.1777H11.2272C13.0768 14.1777 14.6361 15.6528 14.676 17.5242C14.6965 18.4992 14.3145 19.3837 13.6865 20.0191C13.0746 20.6382 12.2297 21.0214 11.2963 21.0214H4.11495C2.11863 21.0214 0.5 22.6592 0.5 24.6791V44.3423C0.5 46.3622 2.11755 48 4.11495 48H44.8851C46.8814 48 48.5 46.3622 48.5 44.3423V3.6577C48.5 1.63778 46.8814 0 44.8851 0ZM31.1796 33.8223H17.8194C16.0842 33.8223 14.6771 32.3985 14.6771 30.6428V24.2009C14.6771 22.4452 16.0842 21.0214 17.8194 21.0214H20.0876C20.8786 21.0214 21.5206 20.3729 21.5206 19.5714V17.3572C21.5206 15.6015 22.9278 14.1777 24.6629 14.1777H31.1796C32.9147 14.1777 34.3219 15.6015 34.3219 17.3572V30.6428C34.3219 32.3985 32.9147 33.8223 31.1796 33.8223Z" fill="#F5F5F0"/>
</svg>