<svg width="28" height="28" viewBox="0 0 28 28" fill="none" xmlns="http://www.w3.org/2000/svg">
<path d="M9.49558 15.5C9.08186 15.5 8.72917 15.3527 8.4375 15.0581C8.14583 14.7635 8 14.4093 8 13.9956C8 13.5819 8.14731 13.2292 8.44192 12.9375C8.73654 12.6458 9.09071 12.5 9.50442 12.5C9.91814 12.5 10.2708 12.6473 10.5625 12.9419C10.8542 13.2365 11 13.5907 11 14.0044C11 14.4181 10.8527 14.7708 10.5581 15.0625C10.2635 15.3542 9.90929 15.5 9.49558 15.5ZM13.9956 15.5C13.5819 15.5 13.2292 15.3527 12.9375 15.0581C12.6458 14.7635 12.5 14.4093 12.5 13.9956C12.5 13.5819 12.6473 13.2292 12.9419 12.9375C13.2365 12.6458 13.5907 12.5 14.0044 12.5C14.4181 12.5 14.7708 12.6473 15.0625 12.9419C15.3542 13.2365 15.5 13.5907 15.5 14.0044C15.5 14.4181 15.3527 14.7708 15.0581 15.0625C14.7635 15.3542 14.4093 15.5 13.9956 15.5ZM18.4956 15.5C18.0819 15.5 17.7292 15.3527 17.4375 15.0581C17.1458 14.7635 17 14.4093 17 13.9956C17 13.5819 17.1473 13.2292 17.4419 12.9375C17.7365 12.6458 18.0907 12.5 18.5044 12.5C18.9181 12.5 19.2708 12.6473 19.5625 12.9419C19.8542 13.2365 20 13.5907 20 14.0044C20 14.4181 19.8527 14.7708 19.5581 15.0625C19.2635 15.3542 18.9093 15.5 18.4956 15.5Z" fill="white"/>
</svg>
