<svg width="28" height="28" viewBox="0 0 28 28" fill="none" xmlns="http://www.w3.org/2000/svg">
<path d="M14.8748 13.9998L11.4582 10.5832C11.3054 10.4304 11.229 10.2533 11.229 10.0519C11.229 9.85053 11.3054 9.67345 11.4582 9.52067C11.6109 9.36789 11.788 9.2915 11.9894 9.2915C12.1908 9.2915 12.3702 9.37024 12.5277 9.52771L16.479 13.479C16.5484 13.554 16.6005 13.6353 16.6353 13.7228C16.67 13.8103 16.6873 13.904 16.6873 14.004C16.6873 14.104 16.67 14.1978 16.6353 14.2853C16.6005 14.3728 16.5484 14.4512 16.479 14.5207L12.5277 18.472C12.3702 18.6294 12.1943 18.7047 11.9998 18.6978C11.8054 18.6908 11.6318 18.6109 11.479 18.4582C11.3262 18.3054 11.2498 18.1283 11.2498 17.9269C11.2498 17.7255 11.3262 17.5484 11.479 17.3957L14.8748 13.9998Z" fill="white"/>
</svg>
